<svg viewBox="0 0 24 24" xmlns="http://www.w3.org/2000/svg"><path fill="#2496ED" d="M13.5 1.5c-.6 0-1.1.2-1.5.5-.2-.4-.5-.7-.9-.8.1-.1.3-.2.5-.2h.2c.6 0 1.2.2 1.7.5zM23 10.5c-.4-.6-1.3-1-2.4-.8-.2-1.3-1.1-2.4-2.1-3.1l-.4-.3-.3.4c-.4.5-.6 1.2-.7 1.8 0 .7.1 1.4.5 2-.7.4-1.4.5-2.1.6H1.2c-.4 0-.7.3-.7.7 0 1.5.2 3 .8 4.4.7 1.4 1.6 2.4 2.9 3.1 1.5.8 3.9 1.2 6.6 1.2.9 0 1.9-.1 2.8-.2 1.3-.2 2.6-.6 3.8-1.3 1-.6 1.9-1.3 2.7-2.3 1.2-1.5 2-3.2 2.4-5.1h.2c1 0 1.7-.4 2.1-1.1l.1-.2-.2-.2-.3-.2zM3 11.3h2.2c.1 0 .2-.1.2-.2V9c0-.1-.1-.2-.2-.2H3c-.1 0-.2.1-.2.2v2.1c0 .1.1.2.2.2zm3 0h2.2c.1 0 .2-.1.2-.2V9c0-.1-.1-.2-.2-.2H6c-.1 0-.2.1-.2.2v2.1c0 .1.1.2.2.2zm3.1 0h2.2c.1 0 .2-.1.2-.2V9c0-.1-.1-.2-.2-.2H9.1c-.1 0-.2.1-.2.2v2.1c0 .1.1.2.2.2zm3 0h2.2c.1 0 .2-.1.2-.2V9c0-.1-.1-.2-.2-.2h-2.2c-.1 0-.2.1-.2.2v2.1c0 .1.1.2.2.2zM6 8.3h2.2c.1 0 .2-.1.2-.2V6c0-.1-.1-.2-.2-.2H6c-.1 0-.2.1-.2.2v2.1c0 .1.1.2.2.2zm3.1 0h2.2c.1 0 .2-.1.2-.2V6c0-.1-.1-.2-.2-.2H9.1c-.1 0-.2.1-.2.2v2.1c0 .1.1.2.2.2zm3 0h2.2c.1 0 .2-.1.2-.2V6c0-.1-.1-.2-.2-.2h-2.2c-.1 0-.2.1-.2.2v2.1c0 .1.1.2.2.2zm0-3h2.2c.1 0 .2-.1.2-.2V3c0-.1-.1-.2-.2-.2h-2.2c-.1 0-.2.1-.2.2v2.1c0 .1.1.2.2.2z"/></svg>
