<svg viewBox="0 0 24 24" xmlns="http://www.w3.org/2000/svg"><path fill="#00ADD8" d="M1.811 10.231c-.047 0-.058-.023-.035-.059l.246-.315c.023-.035.081-.058.128-.058h4.172c.046 0 .058.035.035.07l-.199.303c-.023.036-.082.07-.117.07zM.047 11.306c-.047 0-.059-.023-.035-.058l.245-.316c.023-.035.082-.058.129-.058h5.328c.047 0 .07.035.058.07l-.093.28c-.012.047-.058.07-.105.07zm2.828 1.075c-.047 0-.059-.035-.035-.07l.163-.292c.023-.035.07-.07.117-.07h2.337c.047 0 .07.035.07.082l-.023.28c0 .047-.047.082-.082.082zM17.504 10c-.744.187-1.254.316-1.998.503-.14.035-.152.047-.268-.093-.14-.175-.245-.292-.432-.503-.561-.632-1.1-.817-1.741-.69-.748.152-1.278.585-1.671 1.218-.467.748-.584 1.625-.467 2.548.105.83.525 1.508 1.197 1.986.572.408 1.22.502 1.915.374.537-.093.969-.338 1.333-.69.187-.187.339-.397.491-.631.175-.269.467-.339.736-.222.187.082.315.222.351.42.047.292-.035.537-.21.759-.362.455-.838.77-1.382.96a4.346 4.346 0 0 1-2.501.176c-1.089-.234-1.916-.852-2.478-1.8-.467-.795-.607-1.672-.491-2.595.163-1.253.76-2.29 1.76-3.098.83-.667 1.788-.969 2.864-.877.77.07 1.45.339 2.034.876.327.304.56.643.758 1.02.07.14.047.21-.105.269z"/><path fill="#00ADD8" d="M21.824 13.689c-.105-.96-.467-1.8-1.125-2.502-.583-.632-1.313-.99-2.163-1.112-.96-.14-1.834.047-2.617.572-.935.62-1.496 1.486-1.706 2.595-.245 1.3.117 2.42.969 3.378.642.724 1.44 1.135 2.384 1.253 1.112.14 2.117-.152 2.991-.818.795-.608 1.3-1.394 1.44-2.361.047-.176.047-.467.058-.736-.012-.082-.012-.187-.023-.269h-.208zm-3.478 2.758c-.666.07-1.265-.246-1.544-.887-.187-.42-.222-.864-.163-1.312.093-.678.455-1.17 1.066-1.449.491-.222 1-.199 1.474.058.408.222.665.573.77 1.017.14.584.093 1.147-.21 1.672-.292.502-.726.806-1.275.876l-.118.025z"/></svg>
