<svg viewBox="0 0 24 24" xmlns="http://www.w3.org/2000/svg"><path fill="#E535AB" d="M12 2l9.5 5.5v11L12 24l-9.5-5.5v-11L12 2zm0 1.2L3.5 8.1v9.8l8.5 4.9 8.5-4.9V8.1L12 3.2z"/><circle cx="12" cy="2.5" r="1.5" fill="#E535AB"/><circle cx="21" cy="7.5" r="1.5" fill="#E535AB"/><circle cx="21" cy="17.5" r="1.5" fill="#E535AB"/><circle cx="12" cy="22.5" r="1.5" fill="#E535AB"/><circle cx="3" cy="17.5" r="1.5" fill="#E535AB"/><circle cx="3" cy="7.5" r="1.5" fill="#E535AB"/><path fill="#E535AB" d="M4 8.5h16v1H4zM4.5 16.5l8-14 .9.5-8 14zM19.5 16.5l-8-14-.9.5 8 14z"/></svg>
