<svg viewBox="0 0 24 24" xmlns="http://www.w3.org/2000/svg"><circle cx="12" cy="12" r="11" fill="#CF649A"/><path d="M17.5 13.3c-.7 0-1.3.2-1.8.5-.3-.5-.5-1-.6-1.3 0-.3-.1-.6 0-1 .2-.8.8-2.2.8-2.3 0-.1-.1-.3-.5-.4-.4 0-.5.2-.6.4 0 .1-.2.6-.3 1.2-.4.8-1.2 1.7-1.2 1.7s-.1-.5-.1-1.2c-.1-1.3-.9-1.3-1.1-1.3-.2 0-.4.1-.5.3-.2.3-.1.6-.1.6s-.3-.5-.9-.5c-1.1 0-2.3 1.6-2.3 1.6s-1.2.7-1.8 1c-.2-.3-.8-.5-1.4-.2-.8.4-.8 1.1-.5 1.4.2.2.5.3.8.3.2 0 .5-.1.7-.2 0 .2-.1.5-.3.8-.4.5-1.2.4-1.2.8 0 .4.6.4.8.4.5 0 .9-.3 1.2-.6 1-.3 1.4-.8 1.4-.8s-.7 2.7.3 2.7c.4 0 .8-.6 1.1-1.2v.1c0 .5.3.8.6.8.5 0 .9-.5 1.2-1 .4-.5.6-1.1.6-1.1s0 .5.3.8c.2.2.4.2.6.2.4 0 .8-.4 1-.7.2.4.7.7 1.2.7 1.2 0 1.9-1 1.9-1s.3.6 1.3.6c.4 0 .7-.1.9-.2.1.3.3.5.7.7.3.1.6.1.8 0 .4-.2.5-.6.3-.8-.1-.2-.4-.3-.6-.2z" fill="#fff"/></svg>
