<svg viewBox="0 0 24 24" xmlns="http://www.w3.org/2000/svg"><path fill="#FF3E00" d="M19.1 3.5C17 1.2 13.5.6 10.8 2.1L6.3 5c-1.4.9-2.3 2.3-2.5 3.9-.2 1.2.1 2.4.7 3.4-.4.6-.7 1.3-.8 2-.3 1.6.1 3.3 1.2 4.6 2.1 2.3 5.6 2.9 8.3 1.4l4.5-2.9c1.4-.9 2.3-2.3 2.5-3.9.2-1.2-.1-2.4-.7-3.4.4-.6.7-1.3.8-2 .3-1.6-.1-3.3-1.2-4.6z"/><path fill="#fff" d="M10 18.4c-1.2.3-2.5-.1-3.3-1.1-.6-.6-.8-1.5-.7-2.3v-.3l.1-.3.3.2c.5.4 1.1.7 1.7.8l.2.1v.2c0 .3.1.6.3.8.4.4 1 .5 1.5.3l4.5-2.9c.3-.2.5-.4.5-.8.1-.3 0-.7-.2-1-.4-.4-1-.5-1.5-.3l-1.7 1.1c-1.2.7-2.7.9-4 .4-1.2-.4-2.2-1.4-2.5-2.7-.2-.7-.2-1.5.1-2.2.3-.8.8-1.4 1.5-1.8l4.5-2.9c.5-.3 1-.5 1.6-.5 1.2-.1 2.3.4 3 1.3.6.6.8 1.5.7 2.3v.3l-.2.3c-.5-.4-1.1-.7-1.7-.8l-.2-.1v-.2c0-.3-.1-.6-.3-.8-.4-.4-1-.5-1.5-.3l-4.5 2.9c-.3.2-.4.4-.5.7-.1.4 0 .8.2 1 .4.4 1 .5 1.5.3l1.7-1.1c1.2-.7 2.7-.9 4-.4 1.2.4 2.2 1.4 2.5 2.7.3 1.4-.2 2.9-1.3 3.8l-4.5 2.9c-.4.4-1 .6-1.5.6z"/></svg>
